<svg xmlns="http://www.w3.org/2000/svg" width="1141.5" height="1141.5"><g data-name="Group 1416" fill="rgba(255,255,255,0)" stroke="#fff"><g data-name="Ellipse 344" transform="translate(272.935 271.427)"><circle cx="297.815" cy="297.815" r="297.815" stroke="none"/><circle cx="297.815" cy="297.815" r="297.315" fill="none"/></g><g data-name="Ellipse 345" transform="translate(220.157 218.65)"><circle cx="350.593" cy="350.593" r="350.593" stroke="none"/><circle cx="350.593" cy="350.593" r="350.093" fill="none"/></g><g data-name="Ellipse 346" transform="translate(159.84 159.84)"><circle cx="409.402" cy="409.402" r="409.402" stroke="none"/><circle cx="409.402" cy="409.402" r="408.902" fill="none"/></g><g data-name="Ellipse 347" transform="translate(105.555 105.555)"><circle cx="462.933" cy="462.933" r="462.933" stroke="none"/><circle cx="462.933" cy="462.933" r="462.433" fill="none"/></g><g data-name="Ellipse 348" transform="translate(52.777 52.778)"><circle cx="517.973" cy="517.973" r="517.973" stroke="none"/><circle cx="517.973" cy="517.973" r="517.473" fill="none"/></g><g data-name="Ellipse 349"><circle cx="570.75" cy="570.75" r="570.75" stroke="none"/><circle cx="570.75" cy="570.75" r="570.25" fill="none"/></g><g data-name="Ellipse 350" transform="translate(325.712 324.204)"><circle cx="243.53" cy="243.53" r="243.53" stroke="none"/><circle cx="243.53" cy="243.53" r="243.03" fill="none"/></g><g data-name="Ellipse 351" transform="translate(381.505 381.505)"><circle cx="189.245" cy="189.245" r="189.245" stroke="none"/><circle cx="189.245" cy="189.245" r="188.745" fill="none"/></g><g data-name="Ellipse 352" transform="translate(434.283 434.282)"><circle cx="136.467" cy="136.467" r="136.467" stroke="none"/><circle cx="136.467" cy="136.467" r="135.967" fill="none"/></g></g></svg>